# xmcd
#
# Track frame offsets: 
#        150
#        13850
#        23777
#        35782
#        48227
#        60905
#        77010
#        91532
#        110177
#        122022
#        134475
#        146092
#        162000
#        175167
#        191860
#        204802
#        219850
#        235867
#
# Disc length: 3329 seconds
#
# Revision: 1
# Processed by: cddbd v1.5.2PL0 Copyright (c) Steve Scherf et al.
# Submitted via: ExactAudioCopy v1.3
#
DISCID=ef0cff12
DTITLE=Larry Gatlin and The Gatlin Brothers - All The Gold In California
DTITLE=Various Artist /The Best Of
DYEAR=1996
DGENRE=Country
TTITLE0=Sweet Becky Walker
TTITLE1=Delta Dirt
TTITLE2=Broken Lady
TTITLE3=Statues Without Hearts
TTITLE4=I Don't Wanna Cry
TTITLE5=Love Is Just A Game
TTITLE6=I Just Wish You Were Someone I Love
TTITLE7=I've Done Enough Dyin' Today
TTITLE8=All The Gold In California
TTITLE9=Take Me To Your Lovin' Place
TTITLE10=What Are We Doin' Lonesome
TTITLE11=Sure Feels Like Love
TTITLE12=Houston (Means I'm One Day Closer To You)
TTITLE13=Denver
TTITLE14=The Lady Takes The Cowboy Everytime
TTITLE15=She Used To Be Somebody's Baby
TTITLE16=Talkin' To The Moon
TTITLE17=Love Of A Lifetime
EXTD=
EXTT0=
EXTT1=
EXTT2=
EXTT3=
EXTT4=
EXTT5=
EXTT6=
EXTT7=
EXTT8=
EXTT9=
EXTT10=
EXTT11=
EXTT12=
EXTT13=
EXTT14=
EXTT15=
EXTT16=
EXTT17=
PLAYORDER=
